<?xml version="1.0" encoding="UTF-8"?>
<svg width="170" height="32" xmlns="http://www.w3.org/2000/svg" viewBox="0 0 1976.93 374.78">
  
  <g>
    <path fill="#7a1f1f" d="M183.68,131.78l-19.59-33.76-55.45,37.76,2.87-67.97h-38.98l2.73,68-55.5-37.79L0,131.78l43.07,21.58,18.05,9.05,15.52,7.78h-31.19L0,192.75l19.39,33.76,55.88-37.4-2.74,68.16h38.98l-2.88-68.14,55.84,37.38,19.21-33.76-60.98-30.34,60.98-30.63Z"/>
    <g>
      <path fill="#fff" d="M260.12,295.62V13.45h105.48c21.59,0,39.77,4.04,54.54,12.12,14.77,8.08,25.94,19.16,33.52,33.24,7.58,14.08,11.36,30.08,11.36,48.01s-3.82,34.09-11.46,48.1c-7.64,14.01-18.91,25.06-33.8,33.14-14.9,8.08-33.21,12.12-54.92,12.12h-69.88v-41.66h63.25c12.75,0,23.2-2.21,31.34-6.63,8.14-4.42,14.14-10.54,17.99-18.37,3.85-7.83,5.78-16.73,5.78-26.7s-1.93-18.81-5.78-26.51c-3.85-7.7-9.88-13.7-18.09-17.99-8.21-4.29-18.75-6.44-31.63-6.44h-47.16v239.75h-50.56Z"/>
      <path fill="#fff" d="M488.63,295.62V83.9h47.72v35.41h2.27c3.79-12.25,10.42-21.68,19.88-28.31,9.47-6.63,20.26-9.94,32.38-9.94,2.78,0,5.87.13,9.28.38,3.41.25,6.31.57,8.71.95v45.26c-2.02-.63-5.3-1.2-9.85-1.7-4.55-.5-9.03-.76-13.45-.76-9.09,0-17.27,1.96-24.52,5.87-7.26,3.92-12.94,9.31-17.04,16.19-4.1,6.88-6.15,14.8-6.15,23.77v124.61h-49.24Z"/>
      <path fill="#fff" d="M706.53,299.98c-20.58,0-38.44-4.58-53.59-13.73-15.15-9.15-26.86-21.9-35.13-38.25-8.27-16.35-12.4-35.38-12.4-57.1s4.13-41.19,12.4-57.67c8.27-16.48,19.98-29.26,35.13-38.35,15.15-9.09,33.01-13.63,53.59-13.63s38.63,4.54,53.78,13.63c15.15,9.09,26.86,21.87,35.13,38.35,8.27,16.48,12.4,35.7,12.4,57.67s-4.14,40.75-12.4,57.1c-8.27,16.35-19.98,29.1-35.13,38.25-15.15,9.16-33.08,13.73-53.78,13.73ZM706.53,260.02c11.49,0,21.05-3.09,28.69-9.28,7.64-6.18,13.32-14.52,17.04-25,3.72-10.48,5.59-22.16,5.59-35.04s-1.86-24.74-5.59-35.23c-3.73-10.48-9.41-18.81-17.04-25-7.64-6.18-17.2-9.28-28.69-9.28s-20.99,3.09-28.5,9.28c-7.51,6.19-13.13,14.49-16.85,24.9-3.73,10.42-5.59,22.19-5.59,35.32s1.86,24.56,5.59,35.04c3.72,10.48,9.34,18.81,16.85,25,7.51,6.19,17.01,9.28,28.5,9.28Z"/>
      <path fill="#fff" d="M831.45,374.78V83.9h48.1v35.04h3.22c2.52-5.05,6.12-10.48,10.79-16.29,4.67-5.81,11.01-10.82,19.03-15.06,8.02-4.23,18.27-6.34,30.77-6.34,16.41,0,31.18,4.17,44.32,12.5,13.13,8.33,23.58,20.61,31.34,36.83,7.76,16.22,11.65,36.08,11.65,59.56s-3.79,42.99-11.36,59.28c-7.58,16.29-17.96,28.69-31.15,37.21-13.19,8.52-28.19,12.78-44.98,12.78-12,0-22.03-2.05-30.11-6.16-8.08-4.1-14.52-9.06-19.32-14.87-4.8-5.81-8.46-11.24-10.98-16.29h-2.08v112.68h-49.24ZM929.92,258.88c10.98,0,20.2-3,27.65-9,7.45-6,13.07-14.2,16.85-24.62s5.68-22.19,5.68-35.32-1.86-24.84-5.59-35.13c-3.73-10.29-9.31-18.37-16.76-24.24-7.45-5.87-16.73-8.81-27.84-8.81s-20.01,2.84-27.46,8.52c-7.45,5.68-13.1,13.61-16.95,23.77-3.85,10.16-5.78,22.13-5.78,35.89s1.92,25.82,5.78,36.17c3.85,10.35,9.53,18.4,17.04,24.15,7.51,5.75,16.63,8.62,27.37,8.62Z"/>
      <path fill="#fff" d="M1054.08,295.62V83.9h47.72v35.41h2.27c3.79-12.25,10.42-21.68,19.88-28.31,9.47-6.63,20.26-9.94,32.38-9.94,2.78,0,5.87.13,9.28.38,3.41.25,6.31.57,8.71.95v45.26c-2.02-.63-5.3-1.2-9.85-1.7-4.55-.5-9.03-.76-13.45-.76-9.09,0-17.27,1.96-24.52,5.87-7.26,3.92-12.94,9.31-17.04,16.19-4.1,6.88-6.15,14.8-6.15,23.77v124.61h-49.24Z"/>
      <path fill="#fff" d="M1215.74,53.97c-7.83,0-14.55-2.65-20.17-7.95-5.62-5.3-8.43-11.61-8.43-18.94s2.81-13.98,8.43-19.22c5.62-5.24,12.34-7.86,20.17-7.86s14.74,2.62,20.36,7.86c5.62,5.24,8.43,11.58,8.43,19.03s-2.81,13.83-8.43,19.13c-5.62,5.3-12.4,7.95-20.36,7.95ZM1191.12,295.62V83.9h49.24v211.73h-49.24Z"/>
      <path fill="#fff" d="M1366.79,299.98c-21.34,0-39.67-4.48-55.01-13.45-15.34-8.96-27.15-21.59-35.41-37.88-8.27-16.29-12.4-35.48-12.4-57.57s4.07-40.97,12.21-57.38c8.14-16.41,19.7-29.26,34.66-38.54s32.54-13.92,52.74-13.92c12.88,0,25.16,2.08,36.83,6.25,11.68,4.17,22.03,10.61,31.06,19.32,9.02,8.71,16.1,19.79,21.21,33.24,5.11,13.45,7.67,29.45,7.67,48.01v15.53h-173.09v-33.52h148.66l-23.1,9.85c0-11.87-1.83-22.31-5.49-31.34-3.66-9.03-9.12-16.06-16.38-21.12-7.26-5.05-16.32-7.58-27.18-7.58s-20.07,2.56-27.65,7.67-13.35,11.93-17.33,20.45c-3.98,8.52-5.97,18.02-5.97,28.5v23.1c0,13.38,2.27,24.68,6.82,33.9,4.54,9.22,10.92,16.16,19.13,20.83,8.21,4.67,17.74,7.01,28.6,7.01,7.2,0,13.73-1.04,19.6-3.12,5.87-2.08,10.95-5.18,15.25-9.28,4.29-4.1,7.51-9.12,9.66-15.06l45.26,9.28c-3.41,11.36-9.22,21.31-17.42,29.83-8.21,8.52-18.46,15.15-30.77,19.88-12.31,4.73-26.36,7.1-42.14,7.1Z"/>
      <path fill="#fff" d="M1581.09,83.9v38.63h-120.26v-38.63h120.26ZM1490.95,33.52h49.24v202.45c0,7.7,1.64,13.35,4.92,16.95,3.28,3.6,8.65,5.4,16.1,5.4,2.27,0,5.27-.28,9-.85,3.72-.57,6.72-1.1,9-1.61l7.76,38.07c-5.43,1.64-10.98,2.81-16.67,3.5-5.68.69-11.11,1.04-16.29,1.04-20.33,0-35.92-5.05-46.78-15.15-10.86-10.1-16.29-24.49-16.29-43.18V33.52Z"/>
      <path fill="#fff" d="M1661.69,299.98c-13.38,0-25.44-2.43-36.17-7.29-10.73-4.86-19.19-12.03-25.38-21.49-6.19-9.47-9.28-21.15-9.28-35.04,0-11.99,2.24-21.9,6.72-29.73,4.48-7.83,10.54-14.08,18.18-18.75,7.64-4.67,16.25-8.21,25.85-10.61,9.59-2.4,19.57-4.1,29.92-5.11,12.24-1.39,22.22-2.59,29.92-3.6,7.7-1.01,13.35-2.65,16.95-4.92,3.6-2.27,5.4-5.81,5.4-10.61v-.95c0-6.94-1.39-12.85-4.17-17.71-2.78-4.86-6.91-8.58-12.4-11.17-5.49-2.59-12.28-3.88-20.36-3.88s-15.31,1.26-21.31,3.79c-6,2.53-10.89,5.81-14.68,9.85-3.79,4.04-6.57,8.4-8.33,13.07l-45.64-9.28c4.17-12.5,10.61-22.82,19.32-30.96,8.71-8.14,19.09-14.23,31.15-18.28,12.06-4.04,25.16-6.06,39.3-6.06,9.97,0,20.04,1.17,30.21,3.5,10.16,2.34,19.47,6.28,27.93,11.84,8.46,5.56,15.27,13,20.45,22.35,5.18,9.34,7.76,21.09,7.76,35.22v141.47h-47.16v-29.16h-1.89c-3.16,5.94-7.48,11.46-12.97,16.57s-12.31,9.22-20.45,12.31c-8.14,3.09-17.77,4.64-28.88,4.64ZM1674.38,263.43c10.23,0,19.03-2.02,26.42-6.06,7.39-4.04,13.13-9.37,17.23-16,4.1-6.63,6.15-13.85,6.15-21.68v-25c-1.64,1.26-4.39,2.46-8.24,3.6-3.85,1.14-8.14,2.15-12.88,3.03-4.73.88-9.41,1.64-14.01,2.27-4.61.63-8.49,1.14-11.65,1.52-7.32,1.01-13.95,2.65-19.89,4.92-5.94,2.27-10.58,5.46-13.92,9.56-3.35,4.1-5.02,9.44-5.02,16,0,6.06,1.54,11.14,4.64,15.25,3.09,4.1,7.32,7.23,12.69,9.37,5.37,2.15,11.52,3.22,18.46,3.22Z"/>
      <path fill="#fff" d="M1886.03,299.98c-16.29,0-30.68-2.34-43.18-7.01-12.5-4.67-22.76-11.49-30.77-20.45-8.02-8.96-13.23-19.82-15.62-32.57l46.02-8.71c2.9,10.48,8.05,18.27,15.43,23.39s17.07,7.67,29.07,7.67,21.75-2.43,28.88-7.29c7.13-4.86,10.7-10.89,10.7-18.09,0-6.06-2.34-11.08-7.01-15.06-4.67-3.98-11.87-7.04-21.59-9.18l-36.17-7.76c-19.95-4.29-34.85-11.36-44.69-21.21s-14.77-22.54-14.77-38.07c0-13.13,3.6-24.49,10.79-34.09,7.2-9.59,17.2-17.04,30.02-22.35,12.81-5.3,27.68-7.95,44.6-7.95,16.03,0,29.83,2.27,41.38,6.82s20.89,10.89,28.03,19.03c7.13,8.14,12.09,17.71,14.87,28.69l-43.94,8.71c-2.4-7.45-6.75-13.73-13.07-18.84-6.32-5.11-15.22-7.67-26.7-7.67-10.48,0-19.22,2.31-26.23,6.91-7.01,4.61-10.51,10.51-10.51,17.71,0,6.19,2.33,11.3,7.01,15.34,4.67,4.04,12.37,7.2,23.1,9.47l35.98,7.58c20.07,4.29,34.97,11.17,44.69,20.64,9.72,9.47,14.58,21.65,14.58,36.55,0,13.38-3.85,25.16-11.55,35.32-7.7,10.17-18.4,18.12-32.1,23.86-13.7,5.74-29.45,8.62-47.25,8.62Z"/>
    </g>
  </g>
</svg>